PathFileType	4	(X/Y/Z)	D:\Share\Shared_Data\Ergonomics\Sit To Stand Pertubation\S2\Perturbed.trc
DataRate	CameraRate	NumFrames	NumMarkers	Units	OrigDataRate	OrigDataStartFrame	OrigNumFrames	
100	100	13	18	m	100	8866	201
Frame#	Time	R_Toe			R_ASIS			R_Pelvis			V_Sacral			L_Pelvis			L_ASIS			Clavical			R_Acromium			L_Acromium			Sternum			Torso			R_Thigh_Med			R_Thigh_Lat			R_Thigh			R_Shank_Med			R_Shank_Lat			R_Shank			R_Heel			
		X1	Y1	Z1	X2	Y2	Z2	X3	Y3	Z3	X4	Y4	Z4	X5	Y5	Z5	X6	Y6	Z6	X7	Y7	Z7	X8	Y8	Z8	X9	Y9	Z9	X10	Y10	Z10	X11	Y11	Z11	X12	Y12	Z12	X13	Y13	Z13	X14	Y14	Z14	X15	Y15	Z15	X16	Y16	Z16	X17	Y17	Z17	X18	Y18	Z18	

8866	88.65	0.43162494	0.065906998	0.14663284	0.41407794	1.0276143	0.13000058	0.33864059	1.0277432	0.17780913	0.19062375	1.0273176	0.020665985	0.28138644	1.0326163	-0.16356206	0.37849545	1.0417772	-0.14412929	0.38231543	1.4617747	-0.012549829	0.28353564	1.4801461	0.19732317	0.25964786	1.4821918	-0.1929792	0.43987167	1.3057981	-0.017740206	0.38813104	1.4223097	-0.12869148	0.32184995	0.49501611	0.087932884	0.3118959	0.52088037	0.17573419	0.40718539	0.67674066	0.15214861	0.29748364	0.1078598	0.10709425	0.27342062	0.099366219	0.19849539	0.28222702	0.37491138	0.21096304	0.1943358	0.059591991	0.14849934
8867	88.66	0.43165662	0.065857643	0.14664453	0.41511923	1.0275887	0.1297932	0.33966519	1.0276185	0.1775607	0.1917662	1.0268087	0.020404055	0.28251517	1.0322659	-0.16377547	0.379591	1.0417269	-0.14434903	0.38255829	1.4615953	-0.012722576	0.2835343	1.4799849	0.19697879	0.259896	1.4817274	-0.19320952	0.44036392	1.3057297	-0.017875414	0.38844461	1.422057	-0.12888461	0.32261938	0.49483707	0.087668175	0.31271225	0.52081903	0.1755293	0.40816885	0.67673279	0.15196004	0.29753516	0.10784347	0.1070133	0.27348102	0.099420891	0.19836078	0.28281625	0.3749433	0.21080081	0.19438275	0.059635094	0.1484749
8868	88.67	0.43169174	0.06580587	0.14664491	0.41611615	1.0276051	0.1296158	0.34063702	1.027528	0.17732324	0.19287225	1.0262667	0.020134682	0.28364069	1.031859	-0.16395909	0.38067432	1.0416473	-0.14454933	0.38283377	1.4614061	-0.012889845	0.28356952	1.4798492	0.19662634	0.26023633	1.4812979	-0.19346301	0.44086795	1.3056484	-0.018001606	0.38880008	1.4217906	-0.12907288	0.32357327	0.49471948	0.087424843	0.31366293	0.52077448	0.17531816	0.40926071	0.67677094	0.15177647	0.2975983	0.10782578	0.10691663	0.27355753	0.099484352	0.19821042	0.28350928	0.37497534	0.21062372	0.19443475	0.059685848	0.14844475
8869	88.68	0.43172824	0.065753204	0.14663293	0.41707489	1.0276544	0.12946919	0.34158102	1.0274641	0.17710208	0.19394757	1.0256849	0.019859304	0.28476514	1.0314004	-0.16411401	0.3817493	1.0415366	-0.14472737	0.38313596	1.461205	-0.013051867	0.28363321	1.4797327	0.19626794	0.26066306	1.4809066	-0.19373753	0.44138177	1.3055542	-0.018120682	0.38919452	1.4215153	-0.12925706	0.3246738	0.49463959	0.087201088	0.31472418	0.52073761	0.17510832	0.41044928	0.6768399	0.15160207	0.29766986	0.10780521	0.10680474	0.27364581	0.099552895	0.19804987	0.28428772	0.37500473	0.21044171	0.19449005	0.059743214	0.14840944
8870	88.69	0.43176456	0.065700836	0.14660919	0.41800372	1.0277263	0.12935219	0.3425242	1.0274197	0.17690289	0.1949996	1.0250614	0.019580515	0.28588943	1.0309022	-0.16424844	0.38281934	1.0413948	-0.14488124	0.3834595	1.4609902	-0.013207411	0.28371655	1.4796261	0.19590608	0.26116998	1.480554	-0.19402832	0.44190225	1.3054454	-0.018233173	0.38962595	1.4212357	-0.12943649	0.32588284	0.49457718	0.086997345	0.31587216	0.52070013	0.17490729	0.41171701	0.67692548	0.15144254	0.29774573	0.10778062	0.10667972	0.27374237	0.099622421	0.19788628	0.28513498	0.37502875	0.2102648	0.19454671	0.059805023	0.1483698
8871	88.7	0.43179956	0.065649284	0.14657585	0.41891226	1.0278096	0.1292626	0.34348874	1.0273868	0.1767307	0.19603688	1.0243971	0.019303581	0.2870141	1.0303804	-0.16437315	0.3838862	1.0412233	-0.14501035	0.38380029	1.46076	-0.013354185	0.28381094	1.4795181	0.19554311	0.26175024	1.4802379	-0.19432927	0.44242603	1.3053209	-0.018338015	0.39009308	1.4209561	-0.12960909	0.32716467	0.49451913	0.086815514	0.31708319	0.52065723	0.17472182	0.4130419	0.67701685	0.15130432	0.29782263	0.10775172	0.10654498	0.27384488	0.099689545	0.19772722	0.28603519	0.37504535	0.21010098	0.19460321	0.059868263	0.14832663
8872	88.71	0.43183264	0.065598595	0.14653644	0.41981009	1.0278956	0.12919745	0.34448608	1.0273579	0.17658853	0.19706766	1.0236968	0.019036121	0.28813861	1.0298495	-0.16449684	0.38495059	1.041024	-0.14511522	0.38415555	1.4605137	-0.013489999	0.28390829	1.4793956	0.19518106	0.26239655	1.4799539	-0.19463402	0.4429502	1.305179	-0.018433132	0.39059442	1.4206783	-0.12977248	0.32848654	0.49446011	0.086658669	0.3183331	0.52060767	0.1745576	0.41439951	0.6771076	0.15119392	0.29789822	0.10771909	0.10640508	0.27395148	0.09975219	0.19757916	0.2869722	0.37505383	0.20995546	0.19465842	0.059929729	0.14828117
8873	88.72	0.43186331	0.065548576	0.14649532	0.42070587	1.0279784	0.12915277	0.34551468	1.0273275	0.17647647	0.19809908	1.022968	0.018785675	0.28926056	1.0293203	-0.16462439	0.38601263	1.0408	-0.14519736	0.38452408	1.4602512	-0.013613695	0.28400134	1.4792454	0.19482222	0.26310083	1.4796969	-0.19493736	0.44347263	1.3050182	-0.018516819	0.39112772	1.4204034	-0.12992471	0.32981808	0.49439987	0.086530457	0.3195983	0.52055347	0.17441858	0.41576541	0.67719446	0.15111703	0.29797107	0.10768398	0.10626505	0.27406036	0.099809509	0.19744679	0.28792896	0.37505487	0.20983081	0.19471146	0.059987022	0.14823526
8874	88.73	0.43189148	0.06549913	0.14645677	0.42160666	1.0280544	0.12912381	0.34656146	1.0272915	0.17639154	0.19913622	1.0222204	0.01855777	0.29037653	1.0287994	-0.16475719	0.38707153	1.0405542	-0.1452598	0.38490573	1.4599736	-0.013724747	0.28408398	1.4790552	0.19446968	0.26385443	1.4794618	-0.19523679	0.44399219	1.3048383	-0.018588816	0.39169049	1.4201305	-0.13006424	0.33113318	0.49434103	0.086433533	0.32085617	0.52049817	0.17430667	0.41711813	0.67727594	0.15107776	0.29803995	0.10764827	0.10613019	0.27416913	0.099861397	0.19733284	0.28888681	0.37505042	0.20972778	0.19476138	0.060039204	0.1481913
8875	88.74	0.4319173	0.065450424	0.1464241	0.42251743	1.0281228	0.12910559	0.34760858	1.0272478	0.17632877	0.2001821	1.0214654	0.018356256	0.29148349	1.0282904	-0.16489384	0.38812555	1.0402896	-0.14530714	0.38530002	1.4596842	-0.013822385	0.28415155	1.4788148	0.1941268	0.26464908	1.4792428	-0.19553239	0.4445097	1.3046412	-0.018650169	0.39228006	1.4198586	-0.13018993	0.33241132	0.49428674	0.08636853	0.32208569	0.52044415	0.17422188	0.41844131	0.67735126	0.15107761	0.29810413	0.10761419	0.10600555	0.27427435	0.09990802	0.19723782	0.28982571	0.375043	0.20964616	0.19480722	0.060086597	0.1481514
8876	88.75	0.43194095	0.065403221	0.14639865	0.42344193	1.0281825	0.12909357	0.3486438	1.027196	0.17628223	0.20123817	1.0207147	0.018183935	0.29257986	1.0277955	-0.16503159	0.38917346	1.0400104	-0.14534422	0.38570612	1.4593881	-0.013905687	0.28420068	1.4785178	0.19379654	0.26547705	1.4790345	-0.19582469	0.44502826	1.3044303	-0.018702618	0.39289362	1.4195889	-0.13030154	0.33363635	0.49423825	0.086333534	0.32326724	0.52039233	0.1741624	0.41972418	0.67741876	0.15111513	0.29816385	0.10758373	0.10589488	0.27437262	0.099949623	0.19715979	0.29072559	0.37503482	0.20958482	0.19484825	0.060130367	0.14811697
8877	88.76	0.43196252	0.065358795	0.14638	0.42438309	1.0282325	0.12908385	0.34966476	1.0271378	0.17624609	0.20230473	1.0199784	0.018041805	0.29366531	1.0273168	-0.16516617	0.39021609	1.0397212	-0.14537503	0.38612329	1.4590898	-0.013974194	0.28423013	1.4781605	0.19348117	0.26633121	1.4788323	-0.19611322	0.44555255	1.30421	-0.018748219	0.3935282	1.4193231	-0.13039954	0.33479416	0.49419376	0.086323555	0.32438428	0.52034149	0.17412485	0.42096014	0.67747565	0.15118552	0.2982197	0.10755784	0.10579954	0.27446124	0.099986435	0.19709547	0.29156937	0.37502734	0.20954152	0.19488431	0.060171814	0.14808862
8878	88.77	0.43198236	0.065318413	0.14636676	0.42534387	1.0282697	0.12907349	0.35067474	1.0270737	0.17621495	0.20338129	1.0192666	0.017928263	0.29474197	1.0268561	-0.16529156	0.39125583	1.0394268	-0.14540216	0.38655075	1.4587942	-0.014027893	0.28424118	1.477744	0.19318239	0.26720389	1.4786326	-0.19639674	0.44608832	1.3039855	-0.018789196	0.39418121	1.4190635	-0.13048485	0.33587177	0.49414871	0.086330292	0.32542371	0.52028949	0.17410419	0.4221442	0.67751654	0.1512804	0.29827209	0.1075361	0.10571859	0.27453879	0.10001853	0.19704095	0.29234467	0.37502121	0.209513	0.19491554	0.0602117	0.14806599
